<svg xmlns="http://www.w3.org/2000/svg" viewBox="0 0 801.21 356.27"><defs><style>.cls-1{fill:#00b500;}</style></defs><g id="Layer_2" data-name="Layer 2"><g id="Logo"><path class="cls-1" d="M785.23,206.93a125.58,125.58,0,0,1-17.45,15.65c-30.28,22.4-69.23,31-116.15,25.69q32.94-12.17,51.54-35.19c28.59-35.52,19.2-76.31,18.79-78l-30,7.23,0-.11c.26,1.15,6.12,28.39-13.08,51.89C660.1,217,622.68,229.55,570.05,230.8c27.27-25,39.61-58.32,35.7-96,32.23-.67,59.3-19.43,78.65-38.6Q672.06,86.59,659,77.84c-15.43,14.4-35.52,27.1-57.75,26l-1,0a133.85,133.85,0,0,1,4.37-57.1q-14-6.76-28.48-12.63a163.94,163.94,0,0,0-7,70.42c-35.72,3.49-65,16.55-87.36,39-13.78,13.86-24.42,31.2-31.71,51.21a194.57,194.57,0,0,0-25-36.46l2-1.83c12-11.05,22.48-20,31.69-27.92,22.32-19.16,38.45-33,52.44-55.5,8.49-13.65,16.06-30.33,23.92-53.27q-14.73-4.39-29.88-7.86C493.91,44.51,483.66,61.63,469,77.26c.43-16.47-2.81-34.07-9.78-52.52a199.58,199.58,0,0,0-10-22.15Q430.78.67,411.94.16c15.65,24,44.28,79.05,9.48,119.53l.13.12c-4.83,4.25-9.94,8.81-15.41,13.84-.84.76-1.65,1.53-2.46,2.3-.82-.77-1.63-1.54-2.47-2.3-5.47-5-10.58-9.59-15.41-13.84l.14-.12C351.05,79.12,379.89,23.9,395.52,0q-18.63.14-36.87,1.65a203.86,203.86,0,0,0-10.48,23.09c-7,18.45-10.21,36.05-9.78,52.52-15-15.94-25.34-33.41-36.89-67.32q-15.24,3.17-30.07,7.28c8.17,24.23,16,41.62,24.76,55.76,14,22.49,30.12,36.34,52.44,55.5,9.22,7.91,19.66,16.87,31.69,27.92.67.61,1.31,1.22,2,1.83a194.17,194.17,0,0,0-25,36.46c-7.28-20-17.93-37.35-31.71-51.21C303.25,121,274,108,238.22,104.48a164.06,164.06,0,0,0-8.07-73.7q-14.57,5.55-28.6,12a134.16,134.16,0,0,1,5.6,61l-1,0C182,105,160.41,90,144.55,74.14Q131.38,82.66,118.9,92c19.53,20.5,48.15,42,82.7,42.72-3.91,37.72,8.43,71,35.71,96-52.63-1.25-90.06-13.83-108.77-36.74-19.21-23.5-13.34-50.74-13.08-51.89l0,.11-30-7.23c-.42,1.72-9.81,42.51,18.79,78,12.35,15.34,29.58,27.08,51.53,35.19C108.8,253.56,69.85,245,39.57,222.58a126.49,126.49,0,0,1-22.88-21.91Q7.79,214.26,0,228.52a157.83,157.83,0,0,0,19.62,17.71c21.09,16,46,26.57,74,31.37,34.15,5.85,73,3.08,115.4-8.23a263.19,263.19,0,0,1,39.26-7.59c2.3,0,4.61,0,6.95-.09v-.53c39.57-2.88,69.34,7.67,90.28,31.85a120.45,120.45,0,0,1,10.35,13.92c1.89,3.61,3.89,7,5.95,10.25a149.92,149.92,0,0,1,14.11,39.05l18.45-3.08.42.3.31-.43,8.58-1.43,8.6,1.45.3.41.4-.29,18.47,3.11a149.38,149.38,0,0,1,14.11-39.09c2.06-3.22,4.06-6.64,5.95-10.24A120.84,120.84,0,0,1,461.85,293c20.94-24.18,50.71-34.73,90.28-31.85v.53c2.35.05,4.65.08,7,.09a263.19,263.19,0,0,1,39.26,7.59c42.43,11.31,81.25,14.08,115.4,8.23,28-4.8,52.92-15.36,74-31.37a157.55,157.55,0,0,0,13.48-11.51Q793.77,220.52,785.23,206.93Zm-470,29.48A126.49,126.49,0,0,1,266,214.52c-26.61-19.94-37.79-46.65-33.36-79.51,29.64,2.46,53.47,12.59,71,30.25s28.55,42.82,32.55,73.19A87.62,87.62,0,0,1,315.21,236.41Zm118.92,20.87a85.73,85.73,0,0,1-9.78,34.78q-2.81,4.51-5.21,9a120.67,120.67,0,0,1-15.46,19.11A120.67,120.67,0,0,1,388.22,301q-2.4-4.46-5.22-9a85.56,85.56,0,0,1-9.77-34.77c-1.33-24.83,8.9-50.47,30.45-76.5C425.22,206.81,435.46,232.45,434.13,257.28Zm107.21-42.76a126.43,126.43,0,0,1-49.2,21.89,87.62,87.62,0,0,1-21,2c4-30.37,15.12-55.65,32.56-73.19s41.38-27.78,71-30.25C579.13,167.88,568,194.58,541.34,214.52Z"/></g></g></svg>