<svg xmlns="http://www.w3.org/2000/svg" viewBox="0 0 785.06 407.39"><defs><style>.cls-1{fill:#00b500;}</style></defs><g id="Layer_2" data-name="Layer 2"><g id="Logo"><path class="cls-1" d="M771.12,229.81a124.88,124.88,0,0,1-15.45,14.54c-29.62,23.49-70.76,34.66-120.41,33,30.12-12,51.42-29.05,63.59-51,23.18-41.84,4.07-85.2.81-92l-26.48,22.91c3.7,11.73,7.8,33.41-3.37,53.32-14.73,26.27-52.4,43.79-109.45,51.12a131.93,131.93,0,0,0,25.11-37.51c10-22.67,13.61-48.05,10.77-75.67,31.18-3.9,57.51-24.93,76.54-45.89q-12.51-10.75-25.92-20.53c-15.47,16.62-35.06,31.61-55.76,33.76a186.73,186.73,0,0,1,3.67-66.17q-14.88-7.82-30.47-14.5a218.75,218.75,0,0,0-6,84.69c-41.68,8.23-73.93,28.22-96.1,59.65a162.58,162.58,0,0,0-20.06,39.16,234.27,234.27,0,0,0-24.41-40.81c1.24-1.4,2.5-2.79,3.79-4.19,11.84-12.84,22.11-23.26,31.18-32.45C474.63,119,490.47,102.91,504.15,77c7.71-14.63,14.64-32.34,21.76-56.1q-15.6-5-31.73-8.84c-10.06,33.69-19.38,52.86-32,69.66.18-18.14-2.94-37.47-9.4-57.69-2.35-7.36-5-14.31-7.69-20.75Q426.49,1,407.37.26C423.32,31.65,444.82,90.34,412.3,135l.16.11c-4.77,5-9.83,10.3-15.23,16.16l-.76.84-.76-.84c-5.4-5.86-10.46-11.2-15.23-16.16l.16-.11c-32.49-44.63-10.8-103.64,5.13-135q-18.93.22-37.43,2c-2.89,6.78-5.71,14.16-8.21,22-6.47,20.22-9.58,39.55-9.4,57.69C317.85,64.49,308.4,44.83,298.08,9.72q-16.21,3.45-31.95,8.08c7.44,25.31,14.63,43.9,22.66,59.15,13.67,26,29.52,42,51.45,64.28,9.07,9.19,19.34,19.61,31.18,32.45,1.28,1.4,2.54,2.79,3.79,4.19a234.27,234.27,0,0,0-24.41,40.81,162.25,162.25,0,0,0-20.07-39.16c-22.17-31.43-54.41-51.42-96.09-59.65a218.78,218.78,0,0,0-7.14-88.71q-15.62,6.24-30.56,13.62a187,187,0,0,1,4.9,71.07c-22.56-2.35-43.87-20.09-60-38.51q-13.62,9.51-26.35,20c19.28,22.58,47.37,46.92,81.16,51.14-2.84,27.62.76,53,10.76,75.67a132.17,132.17,0,0,0,25.12,37.51c-57.06-7.33-94.72-24.85-109.45-51.12-11.18-19.93-7.07-41.63-3.37-53.32L93.28,134.34c-3.26,6.78-22.37,50.14.81,92,12.17,22,33.47,39,63.59,51-49.65,1.66-90.79-9.51-120.41-33a124.88,124.88,0,0,1-22.21-22.76Q6.74,237.83,0,254.89a159.72,159.72,0,0,0,14.88,13.85c20.21,16.51,44.57,28.32,72.42,35.09,33.92,8.25,73.1,9,116.48,2.17,85.12-13.36,115.06.94,133.82,26.52a143,143,0,0,1,10.3,16.37c1.87,4.25,3.87,8.27,5.92,12.05A199.71,199.71,0,0,1,368,407.36l28.48-4L425,407.39a200.48,200.48,0,0,1,14.17-46.46c2.05-3.78,4-7.79,5.91-12a145.54,145.54,0,0,1,10.31-16.38C474.1,306.94,504,292.63,589.16,306c43.37,6.81,82.56,6.08,116.48-2.17,27.84-6.77,52.21-18.58,72.41-35.09,2.46-2,4.79-4.05,7-6.09Q778.87,245.88,771.12,229.81ZM314.94,271.23a112.19,112.19,0,0,1-41.59-17.89c-23.69-16.42-49.24-46.9-43.87-100.77,32.54,6.77,57.45,22.17,74.26,46,13.67,19.4,22.17,44.19,25.41,74A65.5,65.5,0,0,1,314.94,271.23Zm109.91,23a117.77,117.77,0,0,1-10,41c-1.81,3.42-3.49,6.84-5,10.22a140.93,140.93,0,0,1-13.39,20.11,139.79,139.79,0,0,1-13.39-20.11c-1.54-3.38-3.22-6.8-5-10.23a117.66,117.66,0,0,1-10-41c-1.59-29.13,8-59,28.38-89.19C416.9,235.19,426.44,265.08,424.85,294.21Zm94.74-40.87A112.26,112.26,0,0,1,478,271.23a65.5,65.5,0,0,1-14.21,1.33c3.24-29.82,11.74-54.6,25.41-74,16.8-23.82,41.72-39.22,74.26-46C568.83,206.44,543.28,236.92,519.59,253.34Z"/></g></g></svg>